<svg width="30" height="30" viewBox="0 0 30 30" fill="none" xmlns="http://www.w3.org/2000/svg">
<path fill-rule="evenodd" clip-rule="evenodd" d="M2.49988 2.50012C1.80952 2.50012 1.24988 3.05977 1.24988 3.75012V22.5001C1.24988 23.1905 1.80952 23.7501 2.49988 23.7501H11.2499C11.9129 23.7501 12.5488 24.0135 13.0176 24.4824C13.4865 24.9512 13.7499 25.5871 13.7499 26.2501C13.7499 26.9405 14.3095 27.5001 14.9999 27.5001C15.6902 27.5001 16.2499 26.9405 16.2499 26.2501C16.2499 25.5871 16.5133 24.9512 16.9821 24.4824C17.451 24.0135 18.0868 23.7501 18.7499 23.7501H27.4999C28.1902 23.7501 28.7499 23.1905 28.7499 22.5001V3.75012C28.7499 3.05977 28.1902 2.50012 27.4999 2.50012H19.9999C18.3423 2.50012 16.7526 3.1586 15.5805 4.3307C15.3701 4.54105 15.1763 4.76485 14.9999 5.00008C14.8235 4.76485 14.6296 4.54105 14.4193 4.3307C13.2472 3.1586 11.6575 2.50012 9.99988 2.50012H2.49988ZM16.2499 21.92C17.0035 21.4849 17.8646 21.2501 18.7499 21.2501H26.2499V5.00012H19.9999C19.0053 5.00012 18.0515 5.39521 17.3482 6.09847C16.645 6.80173 16.2499 7.75556 16.2499 8.75012V21.92ZM13.7499 21.92V8.75012C13.7499 7.75556 13.3548 6.80173 12.6515 6.09847C11.9483 5.39521 10.9944 5.00012 9.99988 5.00012H3.74988V21.2501H11.2499C12.1352 21.2501 12.9962 21.4849 13.7499 21.92Z" fill="#89033E"/>
</svg>
