<svg width="30" height="30" viewBox="0 0 30 30" fill="none" xmlns="http://www.w3.org/2000/svg">
<path d="M28.5415 15.1807C28.5415 7.59913 22.373 1.43066 14.7915 1.43066C7.20996 1.43066 1.0415 7.59913 1.0415 15.1807C1.0415 22.7622 7.20996 28.9307 14.7915 28.9307C18.021 28.9307 21.1532 27.7855 23.6112 25.704C23.6183 25.6984 23.6169 25.6857 23.6225 25.6786C23.8383 25.4854 23.9793 25.2104 23.9793 24.8973C23.9793 24.415 23.6521 24.0075 23.2079 23.8805C22.1798 23.5463 21.4902 22.6043 21.4902 21.5268C21.4902 20.1659 22.5973 19.0589 23.9582 19.0589C24.7296 19.0589 25.4474 19.4171 25.9255 20.0404C26.2823 20.5044 26.9465 20.5932 27.4091 20.2364C27.567 20.1152 27.6643 19.9544 27.732 19.7823C27.7391 19.7696 27.7574 19.7654 27.763 19.7513C28.2792 18.2931 28.5415 16.7545 28.5415 15.1807ZM23.9582 16.9435C21.431 16.9435 19.3748 18.9996 19.3748 21.5268C19.3748 22.9032 19.9897 24.1499 20.9868 25.0017C19.145 26.1722 16.9986 26.8153 14.7915 26.8153C8.37625 26.8153 3.15689 21.5959 3.15689 15.1807C3.15689 8.76541 8.37625 3.54605 14.7915 3.54605C21.2068 3.54605 26.4261 8.76541 26.4261 15.1807C26.4261 15.9831 26.3359 16.77 26.1765 17.54C25.5052 17.1635 24.7521 16.9435 23.9582 16.9435ZM13.3812 16.9435C11.2419 16.9435 9.50304 18.6823 9.50304 20.8217C9.50304 22.961 11.2419 24.6999 13.3812 24.6999C15.5206 24.6999 17.2595 22.961 17.2595 20.8217C17.2595 18.6823 15.5206 16.9435 13.3812 16.9435ZM13.3812 22.5845C12.4096 22.5845 11.6184 21.7934 11.6184 20.8217C11.6184 19.85 12.4096 19.0589 13.3812 19.0589C14.3529 19.0589 15.1441 19.85 15.1441 20.8217C15.1441 21.7934 14.3529 22.5845 13.3812 22.5845ZM13.3812 5.66143C11.2419 5.66143 9.50304 7.40028 9.50304 9.53964C9.50304 11.679 11.2419 13.4178 13.3812 13.4178C15.5206 13.4178 17.2595 11.679 17.2595 9.53964C17.2595 7.40028 15.5206 5.66143 13.3812 5.66143ZM13.3812 11.3025C12.4096 11.3025 11.6184 10.5113 11.6184 9.53964C11.6184 8.56797 12.4096 7.77682 13.3812 7.77682C14.3529 7.77682 15.1441 8.56797 15.1441 9.53964C15.1441 10.5113 14.3529 11.3025 13.3812 11.3025ZM21.1377 9.8922C20.166 9.8922 19.3748 10.6834 19.3748 11.655C19.3748 12.6267 20.166 13.4178 21.1377 13.4178C22.1093 13.4178 22.9005 12.6267 22.9005 11.655C22.9005 10.6834 22.1093 9.8922 21.1377 9.8922ZM20.7851 11.655C20.7851 11.4604 20.943 11.3025 21.1377 11.3025C21.3323 11.3025 21.4902 11.4604 21.4902 11.655C21.4902 12.0428 20.7851 12.0428 20.7851 11.655ZM7.03509 14.123C6.06343 14.123 5.27227 14.9141 5.27227 15.8858C5.27227 16.8575 6.06343 17.6486 7.03509 17.6486C8.00676 17.6486 8.79791 16.8575 8.79791 15.8858C8.79791 14.9141 8.00676 14.123 7.03509 14.123ZM6.68253 15.8858C6.68253 15.6912 6.84048 15.5332 7.03509 15.5332C7.22971 15.5332 7.38766 15.6912 7.38766 15.8858C7.38766 16.2736 6.68253 16.2736 6.68253 15.8858Z" fill="#89033E"/>
</svg>
