<svg width="48" height="48" viewBox="0 0 48 48" fill="none" xmlns="http://www.w3.org/2000/svg">
<path d="M24.125 23.9998C24.125 20.2423 22.0613 16.9603 19.0159 15.2184C20.1065 14.011 20.7917 12.4269 20.7917 10.6665C20.7917 6.9142 17.7523 3.87488 14 3.87488C10.2477 3.87488 7.20833 6.9142 7.20833 10.6665C7.20833 12.4269 7.89355 14.0111 8.98414 15.2184C5.93877 16.9606 3.875 20.2425 3.875 23.9998V25.6664C3.875 27.5688 5.43096 29.1248 7.33333 29.1248H20.6667C22.569 29.1248 24.125 27.5688 24.125 25.6664V23.9998ZM10.7918 10.6665C10.7918 8.90225 12.2358 7.45821 14.0001 7.45821C15.7644 7.45821 17.2084 8.90225 17.2084 10.6665C17.2084 12.4308 15.7644 13.8749 14.0001 13.8749C12.2358 13.8749 10.7918 12.4308 10.7918 10.6665ZM7.45844 25.5416V23.9999C7.45844 20.3856 10.3858 17.4582 14.0001 17.4582C17.6144 17.4582 20.5418 20.3856 20.5418 23.9999V25.5416H7.45844Z" fill="#89033E" stroke="#89033E" stroke-width="0.25"/>
<path d="M44.125 38.9998C44.125 35.2423 42.0613 31.9603 39.0159 30.2184C40.1065 29.011 40.7917 27.4269 40.7917 25.6665C40.7917 21.9142 37.7523 18.8749 34 18.8749C30.2477 18.8749 27.2083 21.9142 27.2083 25.6665C27.2083 27.4269 27.8935 29.0111 28.9841 30.2184C25.9388 31.9606 23.875 35.2425 23.875 38.9998V40.6664C23.875 42.5688 25.431 44.1248 27.3333 44.1248H40.6667C42.569 44.1248 44.125 42.5688 44.125 40.6664V38.9998ZM30.7918 25.6665C30.7918 23.9022 32.2358 22.4582 34.0001 22.4582C35.7644 22.4582 37.2084 23.9022 37.2084 25.6665C37.2084 27.4308 35.7644 28.8749 34.0001 28.8749C32.2358 28.8749 30.7918 27.4308 30.7918 25.6665ZM27.4584 40.5416V38.9999C27.4584 35.3856 30.3858 32.4582 34.0001 32.4582C37.6144 32.4582 40.5418 35.3856 40.5418 38.9999V40.5416H27.4584Z" fill="#89033E" stroke="#89033E" stroke-width="0.25"/>
</svg>
