<svg width="24" height="24" viewBox="0 0 24 24" fill="none" xmlns="http://www.w3.org/2000/svg">
<path d="M8.96975 5.4442L8.96977 5.44422C9.2374 5.71185 9.2374 6.14659 8.96977 6.41422C8.70126 6.68273 8.26741 6.68273 7.99889 6.41422L6.82746 5.24279L6.82732 5.24265C6.55997 4.97426 6.55976 4.54054 6.82742 4.27284C7.09503 4.00429 7.52979 4.00426 7.79743 4.27277L8.96975 5.4442ZM8.96975 5.4442L7.79759 4.27293L8.96975 5.4442ZM16.7269 19.3059C18.9332 19.3059 20.7286 17.5105 20.7286 15.3042V12.9604C20.7286 10.754 18.9332 8.9587 16.7269 8.9587H14.3831C14.1151 8.9587 13.8965 9.17732 13.8965 9.44531C13.8965 9.71311 14.1149 9.93102 14.3831 9.93102H16.7269C17.1053 9.93102 17.4126 10.2383 17.4126 10.6167V11.7891C17.4126 12.5446 17.7065 13.2548 18.2412 13.7896L16.7269 19.3059ZM16.7269 19.3059H13.7933C13.8355 19.1511 13.8581 18.9881 13.8581 18.8202C13.8581 18.6158 13.8246 18.4202 13.7639 18.2369C14.4985 17.9891 15.0295 17.2938 15.0295 16.4764C15.0295 16.0323 14.8731 15.6243 14.6128 15.3042C14.8731 14.9848 15.0295 14.5768 15.0295 14.1327C15.0295 13.6886 14.8731 13.2805 14.6128 12.9605C14.8731 12.641 15.0295 12.233 15.0295 11.7889C15.0295 11.621 15.0069 11.4581 14.9647 11.3032H16.0411V11.7889C16.0411 12.911 16.4775 13.9669 17.2713 14.7598C17.5389 15.0273 17.9735 15.0274 18.2412 14.7599C18.5098 14.4923 18.5099 14.0574 18.2413 13.7898L16.7269 19.3059ZM15.0696 5.4442L15.0695 5.44422C14.802 5.7118 14.8019 6.14644 15.0694 6.41408C15.3371 6.68278 15.772 6.68278 16.0397 6.41408L17.2118 5.24281L17.212 5.24265C17.4793 4.97429 17.4796 4.54064 17.212 4.27293C16.9443 4.00423 16.5094 4.00423 16.2417 4.27293L15.0696 5.4442ZM12.0001 2.89976C11.6217 2.89976 11.3144 3.20702 11.3144 3.58547V5.3435C11.3144 5.72196 11.6217 6.02922 12.0001 6.02922C12.3786 6.02922 12.6858 5.72196 12.6858 5.3435V3.58547C12.6858 3.20702 12.3786 2.89976 12.0001 2.89976ZM16.7269 7.58718H14.3831C13.3582 7.58718 12.525 8.42034 12.525 9.44522C12.525 9.61316 12.5476 9.7761 12.5898 9.93093H11.4495C11.4917 9.77611 11.5143 9.61317 11.5143 9.44522C11.5143 8.42031 10.6802 7.58718 9.65623 7.58718H7.31246C4.32856 7.58718 1.9 9.99628 1.9 12.9603V15.3041C1.9 18.2679 4.32854 20.6782 7.31246 20.6782H16.7269C19.69 20.6782 22.1 18.2674 22.1 15.3041V12.9603C22.1 9.99722 19.6902 7.58718 16.7269 7.58718ZM9.65634 16.9622C9.27789 16.9622 8.97063 17.2694 8.97063 17.6479C8.97063 18.0263 9.27792 18.3335 9.65634 18.3335H12.0001C12.2679 18.3335 12.4858 18.5519 12.4858 18.8201C12.4858 19.0881 12.2681 19.3058 12.0001 19.3058H7.31257C5.0839 19.3058 3.27154 17.5095 3.27154 15.3041V12.9603C3.27154 10.7549 5.08386 8.95859 7.31257 8.95859H9.65634C9.92414 8.95859 10.1421 9.177 10.1421 9.4452C10.1421 9.71319 9.92434 9.93091 9.65634 9.93091H7.31257C6.93412 9.93091 6.62686 10.2382 6.62686 10.6166C6.62686 10.9949 6.93392 11.3032 7.31257 11.3032H13.1715C13.4397 11.3032 13.6581 11.5211 13.6581 11.7889C13.6581 12.0567 13.4397 12.2747 13.1715 12.2747H9.65634C9.27789 12.2747 8.97063 12.5819 8.97063 12.9604C8.97063 13.3388 9.27789 13.6461 9.65634 13.6461H13.1715C13.4395 13.6461 13.6581 13.8647 13.6581 14.1327C13.6581 14.4005 13.4397 14.6184 13.1715 14.6184H9.65634C9.27789 14.6184 8.97063 14.9257 8.97063 15.3041C8.97063 15.6824 9.27769 15.9907 9.65634 15.9907H13.1715C13.4397 15.9907 13.6581 16.2086 13.6581 16.4764C13.6581 16.7442 13.4397 16.9622 13.1715 16.9622H9.65634Z" fill="white" stroke="white" stroke-width="0.2"/>
</svg>
