<svg width="24" height="24" viewBox="0 0 24 24" fill="none" xmlns="http://www.w3.org/2000/svg">
<path d="M7.8 1.99988H16.2C19.4 1.99988 22 4.59988 22 7.79988V16.1999C22 17.7381 21.3889 19.2134 20.3012 20.3011C19.2135 21.3888 17.7383 21.9999 16.2 21.9999H7.8C4.6 21.9999 2 19.3999 2 16.1999V7.79988C2 6.26162 2.61107 4.78637 3.69878 3.69866C4.78649 2.61095 6.26174 1.99988 7.8 1.99988ZM7.6 3.99988C6.64522 3.99988 5.72955 4.37916 5.05442 5.05429C4.37928 5.72942 4 6.6451 4 7.59988V16.3999C4 18.3899 5.61 19.9999 7.6 19.9999H16.4C17.3548 19.9999 18.2705 19.6206 18.9456 18.9455C19.6207 18.2703 20 17.3547 20 16.3999V7.59988C20 5.60988 18.39 3.99988 16.4 3.99988H7.6ZM17.25 5.49988C17.5815 5.49988 17.8995 5.63157 18.1339 5.86599C18.3683 6.10041 18.5 6.41836 18.5 6.74988C18.5 7.0814 18.3683 7.39934 18.1339 7.63376C17.8995 7.86818 17.5815 7.99988 17.25 7.99988C16.9185 7.99988 16.6005 7.86818 16.3661 7.63376C16.1317 7.39934 16 7.0814 16 6.74988C16 6.41836 16.1317 6.10041 16.3661 5.86599C16.6005 5.63157 16.9185 5.49988 17.25 5.49988ZM12 6.99988C13.3261 6.99988 14.5979 7.52666 15.5355 8.46434C16.4732 9.40203 17 10.6738 17 11.9999C17 13.326 16.4732 14.5977 15.5355 15.5354C14.5979 16.4731 13.3261 16.9999 12 16.9999C10.6739 16.9999 9.40215 16.4731 8.46447 15.5354C7.52678 14.5977 7 13.326 7 11.9999C7 10.6738 7.52678 9.40203 8.46447 8.46434C9.40215 7.52666 10.6739 6.99988 12 6.99988ZM12 8.99988C11.2044 8.99988 10.4413 9.31595 9.87868 9.87856C9.31607 10.4412 9 11.2042 9 11.9999C9 12.7955 9.31607 13.5586 9.87868 14.1212C10.4413 14.6838 11.2044 14.9999 12 14.9999C12.7956 14.9999 13.5587 14.6838 14.1213 14.1212C14.6839 13.5586 15 12.7955 15 11.9999C15 11.2042 14.6839 10.4412 14.1213 9.87856C13.5587 9.31595 12.7956 8.99988 12 8.99988Z" fill="white"/>
</svg>
