<svg width="24" height="24" viewBox="0 0 24 24" fill="none" xmlns="http://www.w3.org/2000/svg">
<path d="M7.41881 19.4081V9.68634H4.1903V19.4081H7.41914H7.41881ZM5.80523 8.35922C6.93084 8.35922 7.63161 7.6127 7.63161 6.67976C7.61054 5.72556 6.93084 4.99988 5.82663 4.99988C4.72167 4.99988 4 5.72556 4 6.67967C4 7.61261 4.70052 8.35913 5.78407 8.35913H5.80497L5.80523 8.35922ZM9.20583 19.4081H12.4341V13.9796C12.4341 13.6895 12.4552 13.3985 12.5404 13.1913C12.7737 12.6105 13.3049 12.0093 14.197 12.0093C15.3649 12.0093 15.8324 12.9008 15.8324 14.2078V19.4081H19.0606V13.834C19.0606 10.848 17.4681 9.45842 15.344 9.45842C13.6026 9.45842 12.8378 10.4326 12.4128 11.0961H12.4343V9.68667H9.206C9.24814 10.5987 9.20575 19.4085 9.20575 19.4085L9.20583 19.4081Z" fill="white"/>
</svg>
