<svg width="73" height="40" viewBox="0 0 73 40" fill="none" xmlns="http://www.w3.org/2000/svg">
<path fill-rule="evenodd" clip-rule="evenodd" d="M1.22232 1.40857C1.22232 0.724166 0.670177 0.167092 0 0.167092V0H4.10006V0.167092C3.42988 0.167092 2.87774 0.724166 2.87774 1.40857C2.87774 6.33472 2.87774 24.4914 2.87774 29.9946C2.87774 30.8739 3.58734 31.5862 4.45463 31.5862C7.17476 31.5862 12.6942 31.5862 15.4143 31.5862C16.2816 31.5862 16.9912 30.8739 16.9912 29.9946C16.9912 24.4914 16.9912 6.33472 16.9912 1.40857C16.9912 0.724166 16.4391 0.167092 15.7689 0.167092V0H25.6244C25.7427 0 25.8216 0.003983 25.9005 0.003983C30.1975 0.147231 34.4551 3.72047 34.4551 8.10545C34.4551 11.9373 31.0253 15.1485 27.4773 15.992C27.2408 16.0517 26.9649 16.1034 26.6889 16.1393L33.5878 30.0383C33.5878 30.0383 45.3355 6.29496 47.898 1.142C48.0162 0.93509 47.977 0.684396 47.8587 0.48544C47.7404 0.286485 47.5432 0.167092 47.3066 0.167092V0H51.4067V0.167092H50.9728C50.4997 0.167092 50.1056 0.429746 49.8691 0.847553C49.8691 0.895302 49.8691 0.923133 49.8691 0.923133L55.4278 17.8025C55.4278 17.8025 61.8534 4.84656 63.6668 1.142C63.7851 0.93509 63.7458 0.684396 63.6276 0.48544C63.5093 0.286485 63.312 0.167092 63.0755 0.167092V0H67.1756V0.167092H66.7417C66.2686 0.167092 65.8745 0.429746 65.6379 0.847553C65.6379 0.895302 65.6379 0.923133 65.6379 0.923133L72.5368 21.7896C72.7734 22.5019 72.8521 23.2539 72.8521 24.0338C72.8521 24.0457 72.8521 24.0537 72.8521 24.0657C72.8521 28.3273 69.5014 31.8051 65.3226 31.9841C65.2044 31.9881 65.086 31.992 64.9677 31.992H59.7246L58.5419 28.3949H58.9758C58.9758 28.3949 59.0545 28.6894 59.2122 29.1032C59.6853 30.5795 61.0649 31.5782 62.6024 31.5782C63.6273 31.5782 64.5735 31.5782 64.5735 31.5782C64.7312 31.5862 64.8494 31.5902 64.9677 31.5902C65.086 31.5902 65.2044 31.5862 65.3226 31.5822C69.3043 31.3992 72.4579 28.0885 72.4579 24.0338C72.4579 23.3693 72.3792 22.7247 72.2215 22.1079C72.1427 21.7976 72.0245 21.4912 71.9062 21.1967L65.3619 1.44442C65.3619 1.44442 53.3778 25.6255 50.8154 30.8461C50.6971 31.057 50.6971 31.3076 50.8154 31.5106C50.973 31.7095 51.1702 31.8329 51.4067 31.8329V32H47.3066V31.8329H47.7405C48.1741 31.8329 48.6075 31.5703 48.8046 31.1524C50.1844 28.4069 55.1518 18.3278 55.1518 18.3278L49.593 1.44442C49.593 1.44442 37.6089 25.6255 35.0465 30.8461C34.9282 31.057 34.9282 31.3076 35.0465 31.5106C35.2042 31.7095 35.4013 31.8329 35.6378 31.8329V32H31.5378V31.8329C31.7743 31.8329 32.0108 31.7095 32.1291 31.5026C32.2473 31.2957 32.2476 31.0411 32.1687 30.8262C30.4342 27.3763 24.9149 16.2467 24.9149 16.2467C22.0765 16.5372 19.711 18.3795 18.6466 20.9142V30.5914C18.6466 31.2758 19.1988 31.8329 19.8689 31.8329V32H0V31.8329C0.670177 31.8329 1.22232 31.2758 1.22232 30.5914C1.22232 25.526 1.22232 6.47398 1.22232 1.40857ZM20.2235 0.413795C19.3562 0.413795 18.6466 1.12606 18.6466 2.00544V19.9751C19.7504 18.0015 21.6034 16.5332 23.8504 16.008C24.1264 15.9403 24.4418 15.8886 24.7178 15.8528C24.9937 15.8209 25.2303 15.801 25.5062 15.7971C25.5457 15.7971 25.585 15.7971 25.6244 15.7971C25.7033 15.7971 25.7821 15.7971 25.8215 15.7931C26.0581 15.7891 26.2947 15.7732 26.4918 15.7453C30.3157 15.3116 32.8783 12.0527 32.8783 8.10545C32.8783 3.93136 29.9611 0.533168 25.8612 0.413795C25.7823 0.413795 25.7033 0.413795 25.6244 0.413795C25.585 0.413795 25.5062 0.413795 25.4273 0.413795H20.2235Z" fill="white"/>
</svg>
