<svg width="77" height="34" viewBox="0 0 77 34" fill="none" xmlns="http://www.w3.org/2000/svg">
<path fill-rule="evenodd" clip-rule="evenodd" d="M1.2835 1.47906C1.2835 0.760403 0.703722 0.175453 0 0.175453V0H4.30528V0.175453C3.60156 0.175453 3.02178 0.760403 3.02178 1.47906C3.02178 6.65171 3.02178 25.717 3.02178 31.4955C3.02178 32.4189 3.7669 33.1668 4.6776 33.1668C7.53388 33.1668 13.3296 33.1668 16.1859 33.1668C17.0965 33.1668 17.8417 32.4189 17.8417 31.4955C17.8417 25.717 17.8417 6.65171 17.8417 1.47906C17.8417 0.760403 17.2619 0.175453 16.5582 0.175453V0H26.907C27.0312 0 27.1141 0.00418231 27.1969 0.00418231C31.709 0.154599 36.1798 3.90664 36.1798 8.51105C36.1798 12.5347 32.5783 15.9065 28.8527 16.7923C28.6043 16.855 28.3145 16.9093 28.0248 16.9469L35.269 31.5414C35.269 31.5414 47.6047 6.60996 50.2954 1.19915C50.4196 0.981882 50.3784 0.718643 50.2542 0.509732C50.13 0.30082 49.9229 0.175453 49.6745 0.175453V0H53.9798V0.175453H53.5242C53.0274 0.175453 52.6136 0.451251 52.3652 0.889965C52.3652 0.940104 52.3652 0.969327 52.3652 0.969327L58.2022 18.6934C58.2022 18.6934 64.9494 5.08908 66.8536 1.19915C66.9778 0.981882 66.9365 0.718643 66.8124 0.509732C66.6882 0.30082 66.481 0.175453 66.2327 0.175453V0H70.5379V0.175453H70.0824C69.5856 0.175453 69.1717 0.451251 68.9234 0.889965C68.9234 0.940104 68.9234 0.969327 68.9234 0.969327L76.1676 22.88C76.4159 23.6279 76.4986 24.4175 76.4986 25.2365C76.4986 25.249 76.4986 25.2574 76.4986 25.2699C76.4986 29.7448 72.9802 33.3966 68.5923 33.5846C68.4681 33.5888 68.3438 33.5929 68.2196 33.5929H62.7141L61.4722 29.8158H61.9278C61.9278 29.8158 62.0104 30.125 62.176 30.5596C62.6727 32.1097 64.1214 33.1584 65.7358 33.1584C66.8121 33.1584 67.8056 33.1584 67.8056 33.1584C67.9712 33.1668 68.0954 33.171 68.2196 33.171C68.3438 33.171 68.4681 33.1668 68.5923 33.1626C72.7732 32.9704 76.0847 29.4941 76.0847 25.2365C76.0847 24.5387 76.0021 23.8618 75.8365 23.2142C75.7537 22.8883 75.6296 22.5666 75.5054 22.2574L68.6335 1.5167C68.6335 1.5167 56.0496 26.9078 53.3588 32.3896C53.2347 32.6111 53.2347 32.8743 53.3588 33.0874C53.5244 33.2963 53.7314 33.4258 53.9798 33.4258V33.6013H49.6745V33.4258H50.1301C50.5854 33.4258 51.0405 33.15 51.2474 32.7113C52.6963 29.8283 57.9123 19.2449 57.9123 19.2449L52.0753 1.5167C52.0753 1.5167 39.4914 26.9078 36.8007 32.3896C36.6765 32.6111 36.6765 32.8743 36.8007 33.0874C36.9663 33.2963 37.1732 33.4258 37.4216 33.4258V33.6013H33.1163V33.4258C33.3647 33.4258 33.6131 33.2963 33.7373 33.079C33.8615 32.8617 33.8617 32.5944 33.7789 32.3687C31.9575 28.7462 26.162 17.0597 26.162 17.0597C23.1815 17.3647 20.6976 19.2992 19.58 21.9607V32.1222C19.58 32.8409 20.1597 33.4258 20.8635 33.4258V33.6013H0V33.4258C0.703722 33.4258 1.2835 32.8409 1.2835 32.1222C1.2835 26.8033 1.2835 6.79794 1.2835 1.47906ZM21.2358 0.434501C20.3251 0.434501 19.58 1.1824 19.58 2.10579V20.9747C20.739 18.9023 22.6847 17.3605 25.0442 16.809C25.334 16.738 25.6652 16.6837 25.955 16.6461C26.2448 16.6126 26.4931 16.5917 26.7829 16.5875C26.8243 16.5875 26.8656 16.5875 26.907 16.5875C26.9898 16.5875 27.0726 16.5875 27.114 16.5834C27.3624 16.5792 27.6108 16.5625 27.8178 16.5332C31.8332 16.0778 34.5239 12.6559 34.5239 8.51105C34.5239 4.12809 31.4608 0.559848 27.1556 0.434501C27.0728 0.434501 26.9898 0.434501 26.907 0.434501C26.8656 0.434501 26.7828 0.434501 26.7 0.434501H21.2358Z" fill="#222222"/>
</svg>
