<svg width="48" height="22" viewBox="0 0 48 22" fill="none" xmlns="http://www.w3.org/2000/svg">
<path fill-rule="evenodd" clip-rule="evenodd" d="M0.800104 1.41939C0.800104 0.971393 0.438684 0.606749 0 0.606749V0.497375H2.68381V0.606749C2.24513 0.606749 1.88371 0.971393 1.88371 1.41939C1.88371 4.64389 1.88371 16.5288 1.88371 20.1309C1.88371 20.7065 2.3482 21.1728 2.91591 21.1728C4.69645 21.1728 8.30934 21.1728 10.0899 21.1728C10.6576 21.1728 11.1221 20.7065 11.1221 20.1309C11.1221 16.5288 11.1221 4.64389 11.1221 1.41939C11.1221 0.971393 10.7607 0.606749 10.322 0.606749V0.497375H16.7732C16.8506 0.497375 16.9023 0.499983 16.9539 0.499983C19.7666 0.593749 22.5536 2.93268 22.5536 5.80297C22.5536 8.31121 20.3085 10.4131 17.9861 10.9653C17.8313 11.0044 17.6506 11.0382 17.47 11.0617L21.9859 20.1596C21.9859 20.1596 29.6757 4.61787 31.353 1.2449C31.4304 1.10946 31.4047 0.945361 31.3273 0.81513C31.2499 0.6849 31.1208 0.606749 30.9659 0.606749V0.497375H33.6497V0.606749H33.3657C33.0561 0.606749 32.7981 0.778675 32.6432 1.05216C32.6432 1.08341 32.6432 1.10163 32.6432 1.10163L36.2819 12.1504C36.2819 12.1504 40.4879 3.66979 41.675 1.2449C41.7524 1.10946 41.7267 0.945361 41.6493 0.81513C41.5718 0.6849 41.4427 0.606749 41.2879 0.606749V0.497375H43.9717V0.606749H43.6877C43.378 0.606749 43.12 0.778675 42.9652 1.05216C42.9652 1.08341 42.9652 1.10163 42.9652 1.10163L47.4811 14.7602C47.6359 15.2264 47.6875 15.7187 47.6875 16.2292C47.6875 16.237 47.6875 16.2422 47.6875 16.2501C47.6875 19.0396 45.4941 21.316 42.7588 21.4332C42.6814 21.4358 42.6039 21.4384 42.5265 21.4384H39.0945L38.3203 19.0839H38.6043C38.6043 19.0839 38.6558 19.2766 38.7591 19.5475C39.0687 20.5138 39.9718 21.1676 40.9782 21.1676C41.6491 21.1676 42.2684 21.1676 42.2684 21.1676C42.3717 21.1728 42.4491 21.1754 42.5265 21.1754C42.6039 21.1754 42.6814 21.1728 42.7588 21.1702C45.3651 21.0504 47.4294 18.8833 47.4294 16.2292C47.4294 15.7942 47.3779 15.3723 47.2747 14.9686C47.2231 14.7654 47.1457 14.5649 47.0683 14.3721L42.7845 1.44285C42.7845 1.44285 34.94 17.2711 33.2627 20.6883C33.1852 20.8264 33.1852 20.9904 33.2627 21.1233C33.3659 21.2535 33.4949 21.3343 33.6497 21.3343V21.4436H30.9659V21.3343H31.2499C31.5338 21.3343 31.8174 21.1623 31.9465 20.8888C32.8496 19.0917 36.1012 12.4942 36.1012 12.4942L32.4626 1.44285C32.4626 1.44285 24.618 17.2711 22.9407 20.6883C22.8633 20.8264 22.8633 20.9904 22.9407 21.1233C23.0439 21.2535 23.1729 21.3343 23.3278 21.3343V21.4436H20.6439V21.3343C20.7988 21.3343 20.9536 21.2535 21.031 21.1181C21.1084 20.9826 21.1086 20.8159 21.057 20.6753C19.9216 18.4171 16.3088 11.132 16.3088 11.132C14.4508 11.3221 12.9024 12.5281 12.2057 14.1872V20.5216C12.2057 20.9696 12.5671 21.3343 13.0058 21.3343V21.4436H0V21.3343C0.438684 21.3343 0.800104 20.9696 0.800104 20.5216C0.800104 17.206 0.800104 4.73505 0.800104 1.41939ZM13.2379 0.768233C12.6702 0.768233 12.2057 1.23446 12.2057 1.81008V13.5725C12.9282 12.2806 14.1411 11.3195 15.612 10.9757C15.7926 10.9314 15.9991 10.8976 16.1797 10.8741C16.3604 10.8533 16.5152 10.8403 16.6958 10.8377C16.7216 10.8377 16.7474 10.8377 16.7732 10.8377C16.8248 10.8377 16.8764 10.8377 16.9022 10.8351C17.0571 10.8325 17.2119 10.822 17.341 10.8038C19.844 10.5199 21.5214 8.38674 21.5214 5.80297C21.5214 3.07073 19.6119 0.846372 16.9282 0.768233C16.8766 0.768233 16.8248 0.768233 16.7732 0.768233C16.7474 0.768233 16.6958 0.768233 16.6442 0.768233H13.2379Z" fill="#222222"/>
</svg>
