<svg width="24" height="24" viewBox="0 0 24 24" fill="none" xmlns="http://www.w3.org/2000/svg">
<path d="M4 17.9999C3.71667 17.9999 3.47934 17.9039 3.288 17.7119C3.09667 17.5199 3.00067 17.2825 3 16.9999C2.99934 16.7172 3.09534 16.4799 3.288 16.2879C3.48067 16.0959 3.718 15.9999 4 15.9999H20C20.2833 15.9999 20.521 16.0959 20.713 16.2879C20.905 16.4799 21.0007 16.7172 21 16.9999C20.9993 17.2825 20.9033 17.5202 20.712 17.7129C20.5207 17.9055 20.2833 18.0012 20 17.9999H4ZM4 12.9999C3.71667 12.9999 3.47934 12.9039 3.288 12.7119C3.09667 12.5199 3.00067 12.2825 3 11.9999C2.99934 11.7172 3.09534 11.4799 3.288 11.2879C3.48067 11.0959 3.718 10.9999 4 10.9999H20C20.2833 10.9999 20.521 11.0959 20.713 11.2879C20.905 11.4799 21.0007 11.7172 21 11.9999C20.9993 12.2825 20.9033 12.5202 20.712 12.7129C20.5207 12.9055 20.2833 13.0012 20 12.9999H4ZM4 7.99988C3.71667 7.99988 3.47934 7.90388 3.288 7.71188C3.09667 7.51988 3.00067 7.28254 3 6.99988C2.99934 6.71721 3.09534 6.47988 3.288 6.28788C3.48067 6.09588 3.718 5.99988 4 5.99988H20C20.2833 5.99988 20.521 6.09588 20.713 6.28788C20.905 6.47988 21.0007 6.71721 21 6.99988C20.9993 7.28254 20.9033 7.52021 20.712 7.71288C20.5207 7.90554 20.2833 8.00121 20 7.99988H4Z" fill="#222222"/>
</svg>
