<svg width="24" height="24" viewBox="0 0 24 24" fill="none" xmlns="http://www.w3.org/2000/svg">
<path fill-rule="evenodd" clip-rule="evenodd" d="M18.7173 7.96763C18.5132 7.60758 18.7733 7.16118 19.1871 7.16118H19.8895C20.2373 7.16118 20.5606 7.34982 20.7094 7.66412C21.5613 9.46315 21.8656 11.4847 21.5759 13.4681C21.2589 15.6385 20.2481 17.6428 18.6994 19.1718C17.1506 20.7009 15.15 21.67 13.0057 21.9296C10.8615 22.1892 8.69275 21.725 6.83378 20.6086C4.97482 19.4921 3.52884 17.7853 2.71875 15.7513C1.90866 13.7174 1.77943 11.4691 2.35097 9.35312C2.92251 7.23714 4.1631 5.37091 5.8815 4.04211C7.5999 2.7133 9.70072 1.9957 11.8601 1.9999C15.2633 1.9999 15.876 8.0386 15.9712 11.0321H19.7236C19.5955 9.95201 19.2532 8.90949 18.7173 7.96763ZM9.63789 12.9676C9.77123 16.9644 10.7077 20.0644 11.8442 20.0644C12.9808 20.0644 13.9173 16.9644 14.0506 12.9676H9.63789ZM9.63789 11.0321H14.0506C13.9173 7.03538 12.9808 3.93538 11.8442 3.93538C10.7077 3.93538 9.76805 7.03538 9.63789 11.0321ZM8.86329 4.52893C8.52355 4.66801 8.19367 4.83077 7.87599 5.01602C6.97142 5.5431 6.17876 6.2473 5.54392 7.08785C4.90907 7.9284 4.44466 8.88859 4.17758 9.91279C4.08115 10.2804 4.01007 10.6545 3.96488 11.0321H7.73313C7.7871 9.29667 8.01885 6.54183 8.86329 4.52893ZM3.96488 12.9676C4.09337 14.0467 4.43571 15.088 4.97123 16.0289C5.85137 17.5851 7.22113 18.7952 8.86012 19.4644C8.01567 17.4515 7.7871 14.6999 7.73313 12.9676H3.96488ZM14.8252 19.4709C15.1649 19.3305 15.4948 19.1666 15.8125 18.9805C16.7171 18.4535 17.5097 17.7492 18.1446 16.9087C18.7794 16.0682 19.2438 15.108 19.5109 14.0838C19.6072 13.7172 19.6783 13.3442 19.7236 12.9676H15.9712C15.9014 14.7031 15.6696 17.458 14.8252 19.4709ZM19.1461 3.77405C19.1461 4.3976 18.6486 4.90308 18.0349 4.90308C17.4213 4.90308 16.9238 4.3976 16.9238 3.77405C16.9238 3.15051 17.4213 2.64502 18.0349 2.64502C18.6486 2.64502 19.1461 3.15051 19.1461 3.77405Z" fill="white"/>
</svg>
