<svg width="48" height="48" viewBox="0 0 48 48" fill="none" xmlns="http://www.w3.org/2000/svg">
<path d="M24.0009 3.99984C30.2171 3.99984 36.0812 6.89162 39.8655 11.8238C43.6518 16.7564 44.9278 23.1695 43.3184 29.1744C41.709 35.1808 37.3985 40.0953 31.655 42.4759C25.9116 44.8563 19.3872 44.4299 14.0029 41.3217C8.61685 38.2135 4.98432 32.778 4.1718 26.6143C3.35908 20.4507 5.45899 14.2587 9.85286 9.86167C13.6038 6.1075 18.6933 3.9982 24.0009 3.99984ZM24.0009 10.5706C26.3428 10.5738 28.5596 11.6285 30.0377 13.4447C31.5173 15.2625 32.1024 17.646 31.6311 19.9416C31.1598 22.2354 29.6819 24.1958 27.6076 25.2829C32.035 26.3889 35.5986 29.6655 37.0763 33.9821C39.5738 30.7104 40.7536 26.6227 40.3849 22.5223C40.0162 18.4235 38.1231 14.6118 35.0822 11.8385C32.0397 9.067 28.0691 7.53466 23.9544 7.54574C19.838 7.55696 15.8751 9.10865 12.8491 11.8976C9.82311 14.6866 7.95022 18.5082 7.60264 22.6102C7.2564 26.7106 8.45862 30.7932 10.9721 34.0507C12.4533 29.7419 15.9814 26.454 20.385 25.2824C18.3091 24.1956 16.8312 22.2336 16.3615 19.9383C15.8902 17.6428 16.4769 15.2577 17.9581 13.4414C19.4392 11.6252 21.6577 10.5705 24.0015 10.5705L24.0009 10.5706ZM27.0241 15.3603C25.8075 14.1453 23.9769 13.7814 22.3883 14.4418C20.7981 15.1006 19.7626 16.6507 19.7626 18.3707C19.7626 20.0923 20.7981 21.6424 22.3883 22.3012C23.9768 22.96 25.8074 22.5977 27.0241 21.3827C28.6816 19.7172 28.6816 17.026 27.0241 15.3603ZM34.1476 36.9589C33.5257 31.8741 29.0837 28.359 23.9911 28.359C21.553 28.3397 19.1887 29.1973 17.3309 30.7763C15.4715 32.3552 14.242 34.5497 13.8669 36.9588C16.7603 39.2222 20.3268 40.4517 24.0008 40.4517C27.6732 40.4517 31.2417 39.2222 34.1347 36.9588L34.1476 36.9589Z" fill="#89033E"/>
</svg>
