<svg width="30" height="30" viewBox="0 0 30 30" fill="none" xmlns="http://www.w3.org/2000/svg">
<path fill-rule="evenodd" clip-rule="evenodd" d="M14.5611 1.32959C14.8441 1.22347 15.1559 1.22347 15.4389 1.32959L25.4389 5.07959C25.9268 5.26254 26.25 5.72894 26.25 6.25V15C26.25 19.308 23.3978 22.7504 20.8231 25.0032C19.5095 26.1526 18.2018 27.051 17.225 27.6616C16.7353 27.9676 16.3254 28.2034 16.0351 28.3641C15.8898 28.4445 15.7743 28.5063 15.6933 28.5488C15.6529 28.57 15.621 28.5865 15.5984 28.598L15.5716 28.6117L15.5635 28.6158L15.5598 28.6176C15.5594 28.6179 15.559 28.618 15 27.5C14.441 28.618 14.4406 28.6179 14.4402 28.6176L14.4365 28.6158L14.4284 28.6117L14.4016 28.598C14.379 28.5865 14.3471 28.57 14.3067 28.5488C14.2257 28.5063 14.1102 28.4445 13.9649 28.3641C13.6746 28.2034 13.2647 27.9676 12.775 27.6616C11.7982 27.051 10.4905 26.1526 9.17687 25.0032C6.60218 22.7504 3.75 19.308 3.75 15V6.25C3.75 5.72894 4.07322 5.26254 4.5611 5.07959L14.5611 1.32959ZM15 26.0784C15.2395 25.9427 15.5459 25.7629 15.9 25.5416C16.7982 24.9802 17.9905 24.1599 19.1769 23.1218C21.6022 20.9996 23.75 18.192 23.75 15V7.11625L15 3.835L6.25 7.11625V15C6.25 18.192 8.39782 20.9996 10.8231 23.1218C12.0095 24.1599 13.2018 24.9802 14.1 25.5416C14.4541 25.7629 14.7605 25.9427 15 26.0784Z" fill="#89033E"/>
<path d="M15 27.5L14.4402 28.6176C14.7921 28.7936 15.2079 28.7936 15.5598 28.6176L15 27.5Z" fill="#89033E"/>
</svg>
