<svg width="48" height="48" viewBox="0 0 48 48" fill="none" xmlns="http://www.w3.org/2000/svg">
<path d="M31.9158 12.2959C31.9158 11.5405 32.718 11.0666 33.3382 11.4979C34.6305 12.3964 35.7654 13.5026 36.6934 14.7735C37.7827 16.2653 38.5627 17.9507 38.9921 19.7332C39.1056 20.2044 39.5167 20.5532 40.0015 20.5532H41.8007C42.4077 20.5532 42.8768 20.0159 42.7539 19.4214C42.2898 17.1779 41.3876 15.0404 40.0936 13.1293C39.2795 11.9269 38.3218 10.8311 37.244 9.86368C36.4829 9.18047 36.9371 7.67839 37.9599 7.67839H39.6331C40.1854 7.67839 40.6331 7.23067 40.6331 6.67839V4.99988C40.6331 4.44759 40.1854 3.99988 39.6331 3.99988H30.0478C29.5524 3.99988 29.0773 4.19366 28.7269 4.53858C28.3766 4.88351 28.1798 5.35133 28.1798 5.83913V15.2616C28.1798 15.8139 28.6275 16.2616 29.1798 16.2616H30.9158C31.4681 16.2616 31.9158 15.8139 31.9158 15.2616V12.2959Z" fill="#89033E"/>
<path d="M7.0092 42.2374C7.0092 42.7896 7.45692 43.2374 8.0092 43.2374H17.5945C18.0899 43.2374 18.5651 43.0436 18.9154 42.6987C19.2657 42.3537 19.4625 41.8859 19.4625 41.3981V31.9757C19.4625 31.4234 19.0148 30.9757 18.4625 30.9757H16.7265C16.1742 30.9757 15.7265 31.4234 15.7265 31.9757V34.9363C15.7265 35.6914 14.9247 36.1653 14.3045 35.7346C12.84 34.7178 11.5789 33.4355 10.5915 31.9513C9.46742 30.262 8.72847 28.3569 8.42063 26.3674C8.34135 25.855 7.91278 25.4579 7.3943 25.4579H5.64514C5.06606 25.4579 4.60541 25.9488 4.68015 26.5231C5.00601 29.0264 5.87177 31.4368 7.22412 33.5905C8.10669 34.996 9.1812 36.2679 10.413 37.3727C11.1746 38.0558 10.7204 39.5588 9.6973 39.5588H8.0092C7.45692 39.5588 7.0092 40.0066 7.0092 40.5588V42.2374Z" fill="#89033E"/>
<path d="M37.4762 24.8447C36.3853 24.8421 35.3173 25.1216 34.3767 25.6497C34.0086 25.8563 33.5551 25.8614 33.1827 25.6628C32.0309 25.0482 30.7064 24.8015 29.3953 24.9676C27.8495 25.1634 26.4332 25.9191 25.4225 27.0873C24.4118 28.2555 23.8791 29.7524 23.9284 31.2862C23.9777 32.82 24.6054 34.2808 25.6891 35.3837L33.0808 42.6896C33.4704 43.0747 34.0972 43.0747 34.4868 42.6896L41.8784 35.3837C42.7533 34.5221 43.3498 33.4249 43.5927 32.2303C43.8356 31.0356 43.714 29.7969 43.2434 28.6701C42.7727 27.5433 41.9739 26.5789 40.9477 25.8981C39.9214 25.2174 38.7136 24.8509 37.4762 24.8447ZM39.2695 32.8149L34.4854 37.4986C34.0958 37.88 33.4726 37.8791 33.0842 37.4966L28.2981 32.7842C27.8225 32.3118 27.557 31.6728 27.5599 31.0077C27.5628 30.3425 27.8339 29.7058 28.3137 29.2375C28.7934 28.7692 29.4424 28.5077 30.118 28.5106C30.7935 28.5135 31.4402 28.7805 31.9158 29.2528L33.0763 30.4145C33.4669 30.8056 34.1007 30.8056 34.4913 30.4145L35.6518 29.2528C36.1274 28.7845 36.7724 28.5215 37.4451 28.5215C38.1177 28.5215 38.7627 28.7845 39.2383 29.2528C39.7139 29.7211 39.9811 30.3563 39.9811 31.0185C39.9811 31.6808 39.7139 32.3159 39.2383 32.7842L39.2695 32.8149Z" fill="#89033E"/>
<path d="M13.1555 23.0709C13.5451 23.4559 14.1719 23.4559 14.5615 23.0709L21.9531 15.7649C23.0368 14.662 23.6645 13.2012 23.7139 11.6674C23.7632 10.1336 23.2305 8.63668 22.2198 7.46851C21.2091 6.30034 19.7928 5.54467 18.2469 5.34884C16.9303 5.18204 15.6002 5.43154 14.4449 6.05181C14.0803 6.24761 13.6367 6.24761 13.272 6.05181C12.1168 5.43154 10.7867 5.18204 9.47005 5.34884C7.92423 5.54467 6.50789 6.30034 5.49718 7.46851C4.48647 8.63668 3.95384 10.1336 4.00314 11.6674C4.05244 13.2012 4.68014 14.662 5.76386 15.7649L13.1555 23.0709ZM10.1661 8.90449C10.5046 8.89762 10.841 8.95877 11.1546 9.08421C11.4683 9.20965 11.7527 9.39674 11.9905 9.63406L13.151 10.7958C13.5416 11.1868 14.1754 11.1868 14.566 10.7958L15.7265 9.63406C16.2021 9.16577 16.8472 8.90269 17.5198 8.90269C18.1924 8.90269 18.8374 9.16577 19.313 9.63406C19.7886 10.1023 20.0558 10.7375 20.0558 11.3997C20.0558 12.062 19.7886 12.6971 19.313 13.1654L14.5601 17.8719C14.1712 18.2571 13.5449 18.258 13.1549 17.8739L8.37282 13.1654C8.00696 12.8182 7.75556 12.3707 7.65125 11.8811C7.54695 11.3914 7.59456 10.8821 7.7879 10.4195C7.98124 9.95676 8.31138 9.56198 8.73547 9.28636C9.15956 9.01074 9.658 8.86701 10.1661 8.87383V8.90449Z" fill="#89033E"/>
</svg>
