<svg width="113" height="78" viewBox="0 0 113 78" fill="none" xmlns="http://www.w3.org/2000/svg">
<path d="M99.6771 20.9482C99.7578 20.674 99.9234 20.3937 100.085 20.2083C100.128 20.2986 100.226 20.5644 100.173 20.6662C100.157 20.6972 100.093 20.7317 100.069 20.753C99.4531 21.2566 98.8668 21.8201 98.3651 22.475C97.4945 23.5864 96.9118 24.9453 96.3643 26.294C95.6326 28.1962 94.9827 30.1535 94.5312 32.172C93.8957 35.0538 93.9604 38.0525 93.5639 40.9786C93.3844 42.3945 93.1104 43.7934 92.9364 45.211C92.8917 45.5585 92.8509 45.9072 92.8211 46.2578C92.7808 46.5658 92.7755 46.9009 92.9574 47.1562C93.601 47.8886 94.3741 46.6555 94.826 46.1592C95.4892 45.3544 96.1164 44.5113 96.7548 43.6811C98.8494 40.9133 101.012 38.0114 101.986 34.4427C102.2 33.6424 102.416 32.8449 102.575 32.0278C102.965 29.9317 102.716 27.7487 102.361 25.6685C102.046 23.8311 101.408 21.8085 101.318 19.8596C101.268 18.7784 101.273 18.8082 102.039 17.9575C102.787 17.1267 103.535 16.2971 104.267 15.4483C106.338 13.0647 108.076 10.3322 109.714 7.54068C110.702 5.85976 111.594 4.1066 112.381 2.28759C112.501 2.01193 112.623 1.73702 112.745 1.46185C112.898 1.14712 113.098 0.79151 112.946 0.425763C112.829 0.182301 112.627 0.01831 112.377 0.0356834C112.16 0.0508385 111.994 0.197071 111.886 0.40792C111.709 0.754503 111.535 1.10475 111.362 1.45374C110.79 2.6088 110.215 3.75978 109.611 4.89199C107.728 8.23057 105.657 11.4588 103.218 14.2819C99.9591 18.0239 96.4891 21.5309 92.8696 24.7962C92.0529 25.533 90.4029 26.6262 89.2812 26.7034C88.1083 26.7845 86.4529 25.708 85.2807 25.3371C83.0057 24.6175 80.7634 23.7507 78.467 23.1255C73.4278 21.8386 68.0863 22.7656 63.231 24.5723C62.8487 24.7077 62.4339 25.0726 62.5555 25.5892C62.6544 25.9271 62.9581 26.0863 63.1916 26.2837C64.9339 27.6323 66.7491 28.9065 68.7446 29.6811C72.6345 31.2521 76.8459 31.591 80.9031 30.8529C83.3008 30.4584 85.7155 29.9919 87.9282 28.8032C88.0508 28.7339 88.1792 28.6644 88.306 28.5915C86.9412 29.6911 85.5711 30.7827 84.2137 31.893C81.5017 34.1327 78.7136 36.2481 75.8515 38.2222C74.3472 39.2602 72.9061 40.4209 71.3702 41.3982C70.7609 41.7863 69.6926 42.6849 68.9808 42.6877C68.3179 42.6913 67.9601 42.0849 67.4531 41.6045C64.7753 39.0895 61.7995 36.814 58.4507 35.731C56.1954 35.0667 53.8463 35.1563 51.5392 35.2171C49.8062 35.279 48.0676 35.3999 46.3568 35.739C44.9192 36.0404 43.5095 36.485 42.0872 36.8696C41.5569 37.0555 40.4874 37.08 40.6727 38.0095C40.7415 38.2912 40.9793 38.415 41.1984 38.503C41.4551 38.6243 41.7096 38.7509 41.9616 38.8831C42.9674 39.4196 43.9583 39.9909 44.9426 40.5784C47.2684 42.016 49.6528 43.3382 52.1892 44.1954C54.0318 44.8371 55.9091 45.4448 57.8379 45.5665C59.6777 45.666 61.5242 45.5112 63.3389 45.1581C64.0711 45.0093 64.7935 44.8087 65.4963 44.5434C63.5313 45.5893 61.5411 46.5726 59.5195 47.4702C57.4319 48.4375 55.3638 49.465 53.24 50.3234C51.3148 51.0819 49.3723 51.7843 47.4187 52.4427C47.4621 52.3117 47.4238 52.1637 47.2665 51.9979C47.2667 51.9619 47.2627 51.9257 47.2548 51.8897C47.2469 51.8591 47.2398 51.8288 47.2326 51.7995C45.9384 49.1156 43.5117 47.5983 41.2807 46.1262C39.3941 44.9806 37.57 43.6361 35.5426 42.8477C33.3197 42.0333 30.952 42.2428 28.655 42.2835C26.3518 42.3884 24.0455 42.4089 21.7464 42.6068C21.3135 42.5829 20.7831 42.7915 20.9061 43.4037C20.9999 43.784 21.3578 43.8875 21.6291 44.0504C22.4161 44.4971 23.2067 44.9375 23.9939 45.3857C26.7368 46.8679 29.3239 48.7024 32.0203 50.2903C33.6576 51.1975 35.2872 52.194 37.0707 52.6541C38.7904 53.1007 40.5582 53.2483 42.3147 53.345C43.1048 53.3756 43.8969 53.3845 44.6861 53.3215C43.1888 53.7858 41.6867 54.2298 40.1754 54.6295C36.2615 55.6494 32.1303 57.0317 28.1316 56.5687C26.7413 56.408 25.2107 56.5177 23.8483 56.2084C22.3831 55.876 20.9664 55.0558 19.4835 54.6868C17.2722 54.1418 14.9786 54.2738 12.7668 54.7379C10.6697 55.2329 8.74027 56.3702 6.82323 57.4315C5.16922 58.3795 3.48647 59.2618 1.83516 60.2165C1.23563 60.6269 -0.526298 61.3869 0.153627 62.4422C0.341072 62.6751 0.591779 62.7483 0.851524 62.8099C1.27685 62.9073 1.70664 62.9854 2.13709 63.0366C3.81035 63.2154 5.49424 63.1854 7.1697 63.3269C9.31559 63.4719 11.473 63.7018 13.6195 63.4673C18.756 62.8748 22.9631 59.3527 28.0222 58.3915C31.48 57.7345 34.9647 57.2766 38.4213 56.6064C37.8656 56.9891 37.2604 57.271 36.675 57.5887C34.6054 58.6538 32.5019 59.6442 30.4876 60.8483C28.0979 62.4074 25.6379 64.4337 24.1345 67.136C23.3518 68.5973 22.8591 70.2332 22.3122 71.8252C21.8455 73.3114 21.1957 74.7214 20.6946 76.1831C20.6288 76.6902 21.0519 77.1153 21.477 77.0213C21.8097 76.9346 22.1318 76.7888 22.4462 76.6372C23.7755 76.0058 25.0397 75.2091 26.3089 74.4333C29.0833 72.7504 31.7051 70.7267 33.958 68.1956C35.2916 66.7953 36.3275 65.0855 37.2799 63.3294C38.7187 60.6765 39.2813 56.5349 42.172 55.721C45.6578 54.7409 49.1058 53.6848 52.5055 52.352C53.9316 51.7734 55.333 51.121 56.7288 50.4521C55.0805 51.5394 53.4883 52.7349 52.028 54.1435C48.4126 57.5516 46.2522 63.4544 44.6637 68.4303C44.4616 69.2697 43.9881 70.1907 44.258 71.0691C44.4939 71.7056 45.1161 71.8101 45.6049 71.5141C47.3842 70.653 49.0309 69.4833 50.7593 68.5028C54.2976 66.654 57.1263 64.8859 59.1348 60.8578C59.9094 59.3318 60.3623 57.615 60.6886 55.8932C61.1651 53.2523 61.5683 50.5896 62.0027 47.9371C67.3584 45.45 72.503 42.3815 77.4603 38.9687C78.2492 38.4264 79.0239 37.8585 79.7987 37.2906C79.5066 37.8179 79.2175 38.3457 78.8844 38.8421C78.5169 39.3957 78.109 39.9117 77.6857 40.41C76.43 41.8937 75.2251 43.4385 74.1837 45.1349C72.6901 47.4251 72.0165 50.228 71.5757 53.0116C71.2842 54.7156 71.0386 56.4309 70.8083 58.1485C70.6243 59.5487 70.4547 60.9697 70.5631 62.3894C70.5658 63.0135 70.8165 63.8587 71.4802 63.7503C71.9443 63.6724 72.2593 63.2355 72.5803 62.8819C72.9668 62.4549 73.3425 62.0157 73.7341 61.5977C74.6271 60.6426 75.5576 59.7356 76.4661 58.8021C79.7949 55.6204 82.5406 50.9934 82.3027 45.8023C82.1593 43.9171 81.7377 42.0759 81.603 40.1879C81.4775 38.8418 81.5009 37.471 81.3589 36.1305C84.0757 34.0712 86.736 31.9096 89.4093 29.7766C93.1769 26.8336 96.7373 23.5479 100.109 20.0206" fill="#FDECF0"/>
</svg>
