<svg width="143" height="101" viewBox="0 0 143 101" fill="none" xmlns="http://www.w3.org/2000/svg">
<path d="M58.0358 1.7923C59.3386 3.10713 60.8077 4.24064 62.1798 5.48002C64.5771 7.74404 67.1229 9.84573 69.8686 11.6775C72.9024 13.6893 76.016 15.6438 79.3791 17.0639C82.8226 18.4725 86.4873 19.2214 90.1041 20.0393C94.0643 20.8043 98.0357 21.5157 102.026 22.1086C105.192 22.5662 108.396 22.6044 111.588 22.5484C114.702 22.4851 117.814 22.689 120.927 22.6142C121.045 22.6188 121.177 22.5949 121.301 22.5928C119.903 23.5426 118.489 24.468 117.06 25.3712C112.253 28.5141 106.974 30.8139 101.904 33.4872C100.434 34.2441 98.9613 35 97.4813 35.7389C97.2238 35.4815 96.7231 35.5478 96.5938 35.908C96.4581 36.0872 96.1939 36.1282 95.9857 36.2074C95.9359 36.2448 95.8923 36.238 95.8545 36.1895C94.8167 35.693 93.8118 35.14 92.8355 34.533C90.3784 32.9273 88.4536 30.6633 86.261 28.739C84.7748 27.3428 83.3553 25.8784 81.8689 24.4803C78.9942 21.833 75.8083 19.5041 72.3604 17.6513C69.6682 16.0834 66.7113 14.9556 63.5796 14.7391C58.6612 14.0962 53.6435 14.4233 48.792 15.4002C45.8967 16.0762 43.0942 17.0821 40.2112 17.7992C39.6164 18.0033 38.9147 17.9164 38.3809 18.2588C37.9386 18.6141 38.0312 19.3419 38.4944 19.6341C38.9276 19.8811 39.3908 20.08 39.8374 20.3019C42.9082 21.8178 46.1774 22.8893 49.253 24.3851C52.599 26.1704 55.4574 28.753 58.9085 30.3681C61.878 31.6658 64.8586 32.9745 67.9315 34.0126C70.7051 34.9144 73.5236 35.6837 76.3134 36.5368C78.732 37.2498 81.1844 37.8876 83.7076 38.088C86.7856 38.3451 89.9027 38.2763 92.9719 37.9019C92.3341 38.1934 91.6948 38.4789 91.0513 38.7573C85.5322 41.1337 79.8383 43.0589 74.1966 45.1225C72.3529 45.7989 70.4999 46.4459 68.6364 47.0682C68.3111 46.6273 67.7288 46.3582 67.3423 45.9717C65.9553 44.868 64.5748 43.7375 63.4678 42.3438C62.3837 40.9611 61.1078 39.7377 60.0835 38.3081C58.4699 36.1309 56.5374 34.1669 54.4658 32.4196C50.582 29.447 45.7267 27.9832 40.8643 27.8417C36.7771 27.6822 32.6351 27.5417 28.5927 28.2558C26.0115 28.7185 23.5323 29.5954 20.9767 30.1657C20.3206 30.409 19.4643 30.0739 18.9468 30.6428C18.674 30.9672 18.7538 31.4846 19.0772 31.7456C19.4162 32.0235 19.8745 31.9373 20.2812 31.9087C21.5099 31.943 22.7463 31.9422 23.962 32.1506C25.8044 32.4581 27.6193 33 29.3312 33.7457C31.4526 34.7142 33.3479 36.091 35.3708 37.2395C36.9794 38.1437 38.6667 38.9053 40.2587 39.8392C42.1841 40.983 44.0424 42.2443 46.0406 43.2654C47.9518 44.3096 49.9356 45.2109 51.9786 45.9693C55.0805 47.2073 58.3183 48.1997 61.6755 48.3618C62.6533 48.4132 63.634 48.4197 64.6137 48.3661C61.0201 49.4876 57.3993 50.517 53.7552 51.4663C53.7231 51.3278 53.6562 51.1958 53.5504 51.0833C52.8859 50.5957 52.0223 50.4112 51.2649 50.0867C49.1224 49.2516 46.9095 48.6119 44.7112 47.9389C43.0854 47.3932 41.4066 47.0446 39.7007 46.8723C36.1213 46.4355 32.5775 45.5169 28.9463 45.8204C26.3568 45.9624 23.8515 46.681 21.347 47.2961C19.3384 47.7898 17.2997 48.1633 15.2988 48.6921C11.625 49.645 8.32934 51.5901 4.85476 53.0583C3.42779 53.7368 1.87424 54.1588 0.498938 54.9347C-0.294309 55.458 -0.0831418 56.4835 0.720291 56.8441C2.34198 57.6858 4.04534 58.3535 5.74784 59.013C8.66007 60.1222 11.5986 61.2018 14.6405 61.9013C17.6962 62.5949 20.8263 62.8335 23.9289 63.2363C28.1821 63.8869 32.6051 63.9189 36.7297 62.5701C39.8903 61.4403 42.8946 59.9092 45.855 58.3426C47.9527 57.0928 50.3465 56.1186 51.9929 54.2673C52.0423 54.2225 52.081 54.1743 52.1105 54.1236C58.6811 52.6653 65.1553 50.7577 71.5381 48.6225C71.3072 48.9073 71.0754 49.1908 70.8428 49.4746C69.8423 50.69 68.8352 51.9158 67.7033 53.0131C66.2855 54.4105 64.6895 55.6089 63.1572 56.8756C59.0019 60.5771 55.1038 64.619 52.0248 69.2648C50.0606 72.1326 48.4694 75.2252 46.9552 78.3457C45.6899 80.9872 44.2936 83.5778 43.2617 86.322C42.9812 86.983 42.5637 88.1724 43.5234 88.4576C43.8889 88.5412 44.2176 88.3215 44.4796 88.092C45.465 87.3601 46.4834 86.6737 47.4782 85.9546C49.903 84.2193 52.3786 82.5548 54.839 80.8674C57.554 79.0326 60.312 77.1703 62.3848 74.5982C66.583 69.551 68.5743 63.1914 71.1361 57.254C72.2523 54.5836 73.4737 51.953 74.4666 49.2332C74.5768 48.7519 75.0392 48.0047 75.036 47.4211C80.8908 45.3351 86.7892 43.3675 92.5069 40.927C96.8063 39.0233 100.984 36.8631 105.142 34.6701C105.108 34.7599 105.073 34.8493 105.03 34.9314C105.003 34.9932 104.959 34.9838 104.895 35.0186C104.751 35.0996 104.649 35.2248 104.59 35.377C104.392 35.964 104.248 36.5701 104.109 37.1749C103.849 38.38 102.846 39.2433 102.261 40.2995C100.831 42.568 99.1294 44.6463 97.5307 46.7947C91.608 54.3814 87.4014 63.214 84.746 72.4337C83.8107 75.8109 82.9164 79.2155 82.3716 82.6794C81.8764 85.8257 82.0248 89.0154 81.9674 92.1884C81.9794 94.3067 81.7146 96.4309 81.9184 98.5449C81.9353 99.3537 82.8418 100.51 83.6595 99.8274C83.9312 99.6211 84.0289 99.2896 84.1783 98.9958C84.7903 97.6869 85.3651 96.3638 85.9875 95.0595C86.8025 93.3442 87.7146 91.6731 88.619 90.0037C90.3954 86.6987 92.3791 83.5115 94.2981 80.2893C96.5472 76.6299 98.7523 72.8898 100.078 68.7839C101.252 64.8073 101.559 60.6411 102.293 56.5718C103.168 51.0665 104.186 45.5805 104.912 40.0519C104.958 39.7683 104.977 39.4785 105.027 39.1979C105.437 38.5738 105.614 37.8468 105.749 37.119C105.806 36.5476 106.282 35.9038 105.98 35.3573C106.093 35.0018 106.428 34.5684 106.07 34.2464C106.053 34.2332 106.035 34.2204 106.016 34.2088C108.861 32.7682 111.728 31.3705 114.514 29.821C117.505 28.052 120.424 26.1678 123.268 24.1786C122.869 25.1611 122.58 26.186 122.179 27.1686C121.455 28.9338 120.622 30.651 119.872 32.4058C118.724 34.9376 117.745 37.5427 116.59 40.0712C115.023 43.3495 113.174 46.494 111.803 49.8645C110.063 54.0719 108.426 58.3685 107.854 62.9089C107.078 67.6979 106.466 72.4741 106.556 77.3368C106.598 81.7501 106.022 86.1947 106.684 90.5835C106.761 91.3932 107.228 92.7714 108.275 92.4307C108.665 92.2821 108.906 91.9327 109.061 91.5642C109.502 90.7077 109.925 89.8418 110.354 88.979C111.632 86.4159 113.034 83.9146 114.521 81.4665C116.707 77.7634 119.149 74.1916 120.952 70.28C122.672 66.442 123.913 62.3613 124.563 58.2036C125.426 52.1238 125.551 45.9679 125.522 39.8358C125.629 35.8962 126.015 31.9626 125.748 28.0188C125.698 26.633 125.611 25.2435 125.68 23.8559C125.65 23.4293 125.902 22.925 125.589 22.5637C125.581 22.5555 125.573 22.5478 125.565 22.5401C128.141 20.662 130.654 18.6988 133.103 16.6587C135.768 14.4627 138.217 12.0315 140.656 9.59641C141.237 9.04688 141.814 8.49384 142.407 7.95595C143 7.54948 143.219 7.07293 142.734 6.4873C142.5 6.28823 142.194 6.17156 141.89 6.29417C141.758 6.34722 141.645 6.44539 141.532 6.52908C141.145 6.81457 140.757 7.09945 140.381 7.39927C138.21 9.1263 136.228 11.0715 134.116 12.8679C130.591 15.8567 126.923 18.6791 123.135 21.3298C123.095 21.3374 123.055 21.345 123.015 21.3526C122.787 21.0109 122.369 20.9494 122.015 20.8057C121.315 20.5249 120.622 20.2279 119.953 19.8825C117.914 18.8175 115.955 17.6018 113.966 16.4472C112.374 15.4961 110.912 14.3517 109.319 13.4011C105.449 11.1598 101.482 9.0808 97.4856 7.0741C94.9733 5.79478 92.2932 4.91423 89.584 4.15345C87.7838 3.63197 86.0089 3.00926 84.179 2.59337C81.4586 1.93821 78.6793 1.58461 75.9154 1.16436C72.1687 0.583896 68.424 -0.23276 64.6128 0.0702349C63.0006 0.112819 61.3929 0.291472 59.7789 0.274397C59.5372 0.265944 59.2921 0.249854 59.0537 0.208712C58.65 0.100804 58.2514 -0.140004 57.864 0.15676C57.3105 0.588509 57.5554 1.40394 58.0358 1.7923Z" fill="#FDECF0"/>
</svg>
