<svg width="48" height="48" viewBox="0 0 48 48" fill="none" xmlns="http://www.w3.org/2000/svg">
<mask id="path-1-outside-1_522_2291" maskUnits="userSpaceOnUse" x="4" y="3.30066" width="39" height="41" fill="black">
<rect fill="white" x="4" y="3.30066" width="39" height="41"/>
<path fill-rule="evenodd" clip-rule="evenodd" d="M38.7554 23.4508C38.8533 23.8236 39.1469 24.1103 39.5076 24.2461C41.3163 24.9267 42.6 26.6774 42.6 28.7279C42.6 30.9907 41.0349 32.8939 38.9316 33.3922C38.5577 33.4808 38.2308 33.7265 38.0859 34.0823C37.019 36.7005 35.2944 39.0308 33.112 40.7439C30.408 42.8719 27.192 43.9999 23.8 43.9999C20.408 43.9999 17.192 42.8719 14.488 40.7439C12.3063 39.0238 10.575 36.7008 9.5136 34.0844C9.36883 33.7275 9.04143 33.4807 8.66673 33.3918C6.5643 32.8929 5 30.9901 5 28.7279C5 26.6778 6.28966 24.9209 8.09319 24.2387C8.45342 24.1024 8.74669 23.8159 8.84451 23.4434C9.65901 20.3415 11.3543 17.5334 13.712 15.4159C16.0411 13.3228 18.9061 12.0117 21.9281 11.6275C22.1786 11.5956 22.3588 11.3645 22.302 11.1184C21.9645 9.6553 21.0633 7.88329 18.77 6.93838C18.1011 6.66278 17.655 5.9715 17.8211 5.26738C17.9863 4.5668 18.6916 4.12315 19.3681 4.36916C21.1285 5.0094 22.5594 6.07597 23.544 7.50392C23.6872 7.70213 23.8152 7.90793 23.9358 8.1213C24.0157 8.26256 24.2115 8.28696 24.3263 8.17217C24.8568 7.6413 25.5145 7.18365 26.3182 6.84222C26.9826 6.55995 27.6939 7.00932 27.8591 7.71204C28.025 8.41778 27.5652 9.09755 26.9324 9.4514C26.066 9.9359 25.6012 10.6364 25.362 11.3251C25.314 11.4634 25.4123 11.6052 25.5576 11.6226C28.6235 11.9903 31.5272 13.3038 33.888 15.4239C36.2456 17.5412 37.9408 20.3492 38.7554 23.4508ZM37.544 30.8879C37.64 30.9039 37.736 30.9119 37.832 30.9119C39.016 30.9119 39.976 29.9359 39.976 28.7359C39.976 27.5439 39.024 26.5679 37.848 26.5599H37.8H37.5332C37.0417 26.5599 36.6231 26.2027 36.5457 25.7173L36.504 25.4559C35.448 18.8959 30.104 14.1359 23.8 14.1359C17.496 14.1359 12.152 18.8959 11.096 25.4559L11.0543 25.7173C10.9769 26.2027 10.5583 26.5599 10.0668 26.5599H9.8H9.752C8.576 26.5679 7.624 27.5359 7.624 28.7359C7.624 29.9359 8.584 30.9119 9.768 30.9119C9.856 30.9119 9.96 30.9039 10.056 30.8879L10.3263 30.8512C10.8152 30.7849 11.2794 31.085 11.4196 31.5581L11.496 31.8159C13.184 37.5359 18.128 41.3839 23.8 41.3839C29.472 41.3839 34.416 37.5359 36.104 31.8159L36.1804 31.5581C36.3206 31.085 36.7848 30.7849 37.2737 30.8512L37.544 30.8879ZM19.8309 34.5424C20.8652 35.5955 22.2838 36.2001 23.8079 36.2001C25.3339 36.2001 26.7493 35.5988 27.7855 34.5418C28.2909 34.0262 29.0842 33.813 29.7029 34.1851C30.3255 34.5595 30.5322 35.3778 30.0619 35.9316C28.5147 37.7539 26.2587 38.8081 23.8079 38.8081C21.3569 38.8081 19.1006 37.7537 17.5533 35.9309C17.0835 35.3774 17.29 34.5597 17.9122 34.1855C18.5311 33.8134 19.3249 34.0272 19.8309 34.5424Z"/>
</mask>
<path fill-rule="evenodd" clip-rule="evenodd" d="M38.7554 23.4508C38.8533 23.8236 39.1469 24.1103 39.5076 24.2461C41.3163 24.9267 42.6 26.6774 42.6 28.7279C42.6 30.9907 41.0349 32.8939 38.9316 33.3922C38.5577 33.4808 38.2308 33.7265 38.0859 34.0823C37.019 36.7005 35.2944 39.0308 33.112 40.7439C30.408 42.8719 27.192 43.9999 23.8 43.9999C20.408 43.9999 17.192 42.8719 14.488 40.7439C12.3063 39.0238 10.575 36.7008 9.5136 34.0844C9.36883 33.7275 9.04143 33.4807 8.66673 33.3918C6.5643 32.8929 5 30.9901 5 28.7279C5 26.6778 6.28966 24.9209 8.09319 24.2387C8.45342 24.1024 8.74669 23.8159 8.84451 23.4434C9.65901 20.3415 11.3543 17.5334 13.712 15.4159C16.0411 13.3228 18.9061 12.0117 21.9281 11.6275C22.1786 11.5956 22.3588 11.3645 22.302 11.1184C21.9645 9.6553 21.0633 7.88329 18.77 6.93838C18.1011 6.66278 17.655 5.9715 17.8211 5.26738C17.9863 4.5668 18.6916 4.12315 19.3681 4.36916C21.1285 5.0094 22.5594 6.07597 23.544 7.50392C23.6872 7.70213 23.8152 7.90793 23.9358 8.1213C24.0157 8.26256 24.2115 8.28696 24.3263 8.17217C24.8568 7.6413 25.5145 7.18365 26.3182 6.84222C26.9826 6.55995 27.6939 7.00932 27.8591 7.71204C28.025 8.41778 27.5652 9.09755 26.9324 9.4514C26.066 9.9359 25.6012 10.6364 25.362 11.3251C25.314 11.4634 25.4123 11.6052 25.5576 11.6226C28.6235 11.9903 31.5272 13.3038 33.888 15.4239C36.2456 17.5412 37.9408 20.3492 38.7554 23.4508ZM37.544 30.8879C37.64 30.9039 37.736 30.9119 37.832 30.9119C39.016 30.9119 39.976 29.9359 39.976 28.7359C39.976 27.5439 39.024 26.5679 37.848 26.5599H37.8H37.5332C37.0417 26.5599 36.6231 26.2027 36.5457 25.7173L36.504 25.4559C35.448 18.8959 30.104 14.1359 23.8 14.1359C17.496 14.1359 12.152 18.8959 11.096 25.4559L11.0543 25.7173C10.9769 26.2027 10.5583 26.5599 10.0668 26.5599H9.8H9.752C8.576 26.5679 7.624 27.5359 7.624 28.7359C7.624 29.9359 8.584 30.9119 9.768 30.9119C9.856 30.9119 9.96 30.9039 10.056 30.8879L10.3263 30.8512C10.8152 30.7849 11.2794 31.085 11.4196 31.5581L11.496 31.8159C13.184 37.5359 18.128 41.3839 23.8 41.3839C29.472 41.3839 34.416 37.5359 36.104 31.8159L36.1804 31.5581C36.3206 31.085 36.7848 30.7849 37.2737 30.8512L37.544 30.8879ZM19.8309 34.5424C20.8652 35.5955 22.2838 36.2001 23.8079 36.2001C25.3339 36.2001 26.7493 35.5988 27.7855 34.5418C28.2909 34.0262 29.0842 33.813 29.7029 34.1851C30.3255 34.5595 30.5322 35.3778 30.0619 35.9316C28.5147 37.7539 26.2587 38.8081 23.8079 38.8081C21.3569 38.8081 19.1006 37.7537 17.5533 35.9309C17.0835 35.3774 17.29 34.5597 17.9122 34.1855C18.5311 33.8134 19.3249 34.0272 19.8309 34.5424Z" fill="#89033E"/>
<path d="M39.5076 24.2461L39.6133 23.9653L39.5076 24.2461ZM38.7554 23.4508L38.4652 23.527L38.7554 23.4508ZM38.9316 33.3922L39.0008 33.6841L38.9316 33.3922ZM38.0859 34.0823L37.808 33.9691V33.9691L38.0859 34.0823ZM33.112 40.7439L32.9268 40.5079L32.9265 40.5082L33.112 40.7439ZM14.488 40.7439L14.3023 40.9795L14.3025 40.9797L14.488 40.7439ZM9.5136 34.0844L9.2356 34.1971L9.5136 34.0844ZM8.66673 33.3918L8.59746 33.6837L8.59746 33.6837L8.66673 33.3918ZM8.09319 24.2387L7.98706 23.9581H7.98706L8.09319 24.2387ZM8.84451 23.4434L9.13467 23.5196L8.84451 23.4434ZM13.712 15.4159L13.9125 15.6391L13.9125 15.639L13.712 15.4159ZM21.9281 11.6275L21.9659 11.9251L21.9281 11.6275ZM22.302 11.1184L22.5943 11.051V11.051L22.302 11.1184ZM18.77 6.93838L18.6557 7.21575L18.77 6.93838ZM17.8211 5.26738L18.1131 5.33624V5.33624L17.8211 5.26738ZM19.3681 4.36916L19.2655 4.6511V4.6511L19.3681 4.36916ZM23.544 7.50392L23.297 7.67425L23.3008 7.67956L23.544 7.50392ZM23.9358 8.1213L23.6747 8.26898L23.6747 8.26898L23.9358 8.1213ZM24.3263 8.17217L24.5385 8.38423L24.5385 8.38423L24.3263 8.17217ZM26.3182 6.84222L26.2009 6.5661V6.5661L26.3182 6.84222ZM27.8591 7.71204L27.5671 7.7807V7.7807L27.8591 7.71204ZM26.9324 9.4514L27.0788 9.71324L27.0788 9.71324L26.9324 9.4514ZM25.362 11.3251L25.0786 11.2267V11.2267L25.362 11.3251ZM25.5576 11.6226L25.5933 11.3247H25.5933L25.5576 11.6226ZM33.888 15.4239L34.0885 15.2007L34.0885 15.2007L33.888 15.4239ZM37.544 30.8879L37.5933 30.5919L37.5844 30.5906L37.544 30.8879ZM37.848 26.5599L37.85 26.2599H37.848V26.5599ZM36.5457 25.7173L36.8419 25.6701L36.5457 25.7173ZM36.504 25.4559L36.8003 25.4087L36.8002 25.4082L36.504 25.4559ZM11.096 25.4559L10.7998 25.4082L10.7997 25.4087L11.096 25.4559ZM11.0543 25.7173L10.7581 25.6701L11.0543 25.7173ZM9.752 26.5599V26.2599L9.74996 26.2599L9.752 26.5599ZM10.056 30.8879L10.0156 30.5905L10.0067 30.592L10.056 30.8879ZM10.3263 30.8512L10.3667 31.1485H10.3667L10.3263 30.8512ZM11.4196 31.5581L11.7072 31.4728L11.4196 31.5581ZM11.496 31.8159L11.7837 31.731L11.7836 31.7307L11.496 31.8159ZM36.104 31.8159L35.8164 31.7307L35.8163 31.731L36.104 31.8159ZM36.1804 31.5581L36.4681 31.6433L36.1804 31.5581ZM37.2737 30.8512L37.2333 31.1485L37.2737 30.8512ZM19.8309 34.5424L20.045 34.3322L19.8309 34.5424ZM27.7855 34.5418L27.9997 34.7518L27.7855 34.5418ZM29.7029 34.1851L29.5483 34.4422L29.7029 34.1851ZM30.0619 35.9316L29.8333 35.7374L30.0619 35.9316ZM17.5533 35.9309L17.7821 35.7368V35.7368L17.5533 35.9309ZM17.9122 34.1855L18.0668 34.4426L17.9122 34.1855ZM39.6133 23.9653C39.3285 23.8581 39.1149 23.6388 39.0455 23.3746L38.4652 23.527C38.5916 24.0085 38.9653 24.3625 39.402 24.5268L39.6133 23.9653ZM42.9 28.7279C42.9 26.5493 41.5359 24.6887 39.6133 23.9653L39.402 24.5268C41.0968 25.1646 42.3 26.8056 42.3 28.7279H42.9ZM39.0008 33.6841C41.2375 33.1542 42.9 31.1317 42.9 28.7279H42.3C42.3 30.8498 40.8323 32.6336 38.8624 33.1003L39.0008 33.6841ZM38.3637 34.1955C38.4664 33.9435 38.7056 33.754 39.0008 33.6841L38.8624 33.1003C38.4099 33.2075 37.9953 33.5095 37.808 33.9691L38.3637 34.1955ZM33.2972 40.9799C35.5225 39.2331 37.2781 36.8597 38.3637 34.1955L37.808 33.9691C36.76 36.5413 35.0662 38.8285 32.9268 40.5079L33.2972 40.9799ZM23.8 44.2999C27.2607 44.2999 30.5417 43.1484 33.2975 40.9797L32.9265 40.5082C30.2743 42.5954 27.1233 43.6999 23.8 43.6999V44.2999ZM14.3025 40.9797C17.0583 43.1484 20.3393 44.2999 23.8 44.2999V43.6999C20.4767 43.6999 17.3257 42.5954 14.6735 40.5082L14.3025 40.9797ZM9.2356 34.1971C10.3161 36.8606 12.0787 39.2264 14.3023 40.9795L14.6737 40.5083C12.5339 38.8212 10.8339 36.5409 9.79159 33.9716L9.2356 34.1971ZM8.59746 33.6837C8.8933 33.7539 9.13296 33.9441 9.2356 34.1971L9.79159 33.9716C9.60469 33.5109 9.18956 33.2075 8.736 33.0999L8.59746 33.6837ZM4.7 28.7279C4.7 31.131 6.36166 33.1531 8.59746 33.6837L8.736 33.0999C6.76694 32.6326 5.3 30.8492 5.3 28.7279H4.7ZM7.98706 23.9581C6.07017 24.6832 4.7 26.5496 4.7 28.7279H5.3C5.3 26.8061 6.50915 25.1586 8.19933 24.5193L7.98706 23.9581ZM8.55434 23.3672C8.48504 23.6311 8.27167 23.8504 7.98706 23.9581L8.19933 24.5193C8.63518 24.3544 9.00835 24.0007 9.13467 23.5196L8.55434 23.3672ZM13.5115 15.1927C11.1092 17.3503 9.38338 20.2099 8.55434 23.3672L9.13467 23.5196C9.93463 20.473 11.5994 17.7165 13.9125 15.6391L13.5115 15.1927ZM21.8902 11.3299C18.8069 11.7219 15.8853 13.0594 13.5115 15.1928L13.9125 15.639C16.1969 13.5861 19.0053 12.3015 21.9659 11.9251L21.8902 11.3299ZM22.0097 11.1859C22.0221 11.2396 21.9849 11.3178 21.8902 11.3299L21.9659 11.9251C22.3723 11.8734 22.6955 11.4894 22.5943 11.051L22.0097 11.1859ZM18.6557 7.21575C20.8345 8.11348 21.6872 9.78803 22.0097 11.1859L22.5943 11.051C22.2417 9.52257 21.2921 7.65309 18.8843 6.661L18.6557 7.21575ZM17.5291 5.19851C17.3223 6.07526 17.8804 6.8963 18.6557 7.21575L18.8843 6.661C18.3218 6.42926 17.9877 5.86773 18.1131 5.33624L17.5291 5.19851ZM19.4706 4.08723C18.602 3.77134 17.7296 4.34828 17.5291 5.19851L18.1131 5.33624C18.243 4.78532 18.7812 4.47497 19.2655 4.6511L19.4706 4.08723ZM23.791 7.33362C22.7676 5.84932 21.2836 4.74658 19.4706 4.08723L19.2655 4.6511C20.9734 5.27222 22.3513 6.30262 23.297 7.67421L23.791 7.33362ZM24.197 7.97363C24.0723 7.75314 23.9384 7.53755 23.7872 7.32827L23.3008 7.67956C23.436 7.86671 23.558 8.06272 23.6747 8.26898L24.197 7.97363ZM24.1141 7.96011C24.1267 7.94741 24.1435 7.94357 24.1562 7.9452C24.1692 7.94688 24.1868 7.95565 24.197 7.97363L23.6747 8.26898C23.8547 8.58726 24.287 8.63584 24.5385 8.38423L24.1141 7.96011ZM26.2009 6.5661C25.3618 6.92256 24.6718 7.40193 24.1141 7.96011L24.5385 8.38423C25.0417 7.88067 25.6672 7.44474 26.4355 7.11833L26.2009 6.5661ZM28.1511 7.64338C27.9522 6.79719 27.0704 6.1967 26.2009 6.5661L26.4355 7.11833C26.8948 6.92319 27.4356 7.22145 27.5671 7.7807L28.1511 7.64338ZM27.0788 9.71324C27.7792 9.32158 28.3589 8.52716 28.1511 7.64338L27.5671 7.7807C27.6911 8.3084 27.3512 8.87352 26.786 9.18956L27.0788 9.71324ZM25.6454 11.4235C25.8646 10.7922 26.2868 10.1561 27.0788 9.71324L26.786 9.18956C25.8452 9.71566 25.3377 10.4805 25.0786 11.2267L25.6454 11.4235ZM25.5933 11.3247C25.6095 11.3267 25.6258 11.3361 25.6367 11.3523C25.6485 11.3701 25.6544 11.3977 25.6454 11.4235L25.0786 11.2267C24.9614 11.5643 25.2064 11.8826 25.5219 11.9204L25.5933 11.3247ZM34.0885 15.2007C31.6822 13.0398 28.7212 11.6999 25.5933 11.3247L25.5219 11.9204C28.5258 12.2808 31.3721 13.5678 33.6876 15.6471L34.0885 15.2007ZM39.0455 23.3746C38.2164 20.2176 36.4907 17.3581 34.0885 15.2007L33.6876 15.6471C36.0005 17.7243 37.6652 20.4807 38.4652 23.527L39.0455 23.3746ZM37.832 30.6119C37.7528 30.6119 37.6732 30.6053 37.5933 30.592L37.4947 31.1838C37.6068 31.2025 37.7193 31.2119 37.832 31.2119V30.6119ZM39.676 28.7359C39.676 29.7746 38.846 30.6119 37.832 30.6119V31.2119C39.186 31.2119 40.276 30.0972 40.276 28.7359H39.676ZM37.846 26.8599C38.8525 26.8668 39.676 27.7042 39.676 28.7359H40.276C40.276 27.3836 39.1955 26.2691 37.85 26.2599L37.846 26.8599ZM37.8 26.8599H37.848V26.2599H37.8V26.8599ZM37.5332 26.8599H37.8V26.2599H37.5332V26.8599ZM36.2494 25.7646C36.35 26.3956 36.8943 26.8599 37.5332 26.8599V26.2599C37.1892 26.2599 36.8961 26.0099 36.8419 25.6701L36.2494 25.7646ZM36.2077 25.5031L36.2494 25.7646L36.8419 25.6701L36.8003 25.4087L36.2077 25.5031ZM23.8 14.4359C29.9452 14.4359 35.1733 19.0773 36.2078 25.5036L36.8002 25.4082C35.7227 18.7145 30.2628 13.8359 23.8 13.8359V14.4359ZM11.3922 25.5036C12.4267 19.0773 17.6548 14.4359 23.8 14.4359V13.8359C17.3372 13.8359 11.8773 18.7145 10.7998 25.4082L11.3922 25.5036ZM11.3506 25.7646L11.3923 25.5031L10.7997 25.4087L10.7581 25.6701L11.3506 25.7646ZM10.0668 26.8599C10.7058 26.8599 11.25 26.3956 11.3506 25.7646L10.7581 25.6701C10.7039 26.0099 10.4109 26.2599 10.0668 26.2599V26.8599ZM9.8 26.8599H10.0668V26.2599H9.8V26.8599ZM9.752 26.8599H9.8V26.2599H9.752V26.8599ZM7.924 28.7359C7.924 27.6969 8.74679 26.8668 9.75404 26.8599L9.74996 26.2599C8.40521 26.2691 7.324 27.3749 7.324 28.7359H7.924ZM9.768 30.6119C8.75401 30.6119 7.924 29.7746 7.924 28.7359H7.324C7.324 30.0972 8.41399 31.2119 9.768 31.2119V30.6119ZM10.0067 30.592C9.92742 30.6052 9.83993 30.6119 9.768 30.6119V31.2119C9.87207 31.2119 9.99258 31.2026 10.1053 31.1838L10.0067 30.592ZM10.286 30.554L10.0157 30.5906L10.0963 31.1852L10.3667 31.1485L10.286 30.554ZM11.7072 31.4728C11.525 30.8579 10.9215 30.4677 10.286 30.554L10.3667 31.1485C10.7089 31.1021 11.0338 31.3122 11.132 31.6433L11.7072 31.4728ZM11.7836 31.7307L11.7072 31.4728L11.132 31.6433L11.2084 31.9011L11.7836 31.7307ZM23.8 41.0839C18.2704 41.0839 13.4368 37.3328 11.7837 31.731L11.2083 31.9008C12.9312 37.7391 17.9856 41.6839 23.8 41.6839V41.0839ZM35.8163 31.731C34.1632 37.3328 29.3296 41.0839 23.8 41.0839V41.6839C29.6144 41.6839 34.6688 37.7391 36.3917 31.9008L35.8163 31.731ZM35.8928 31.4728L35.8164 31.7307L36.3916 31.9011L36.4681 31.6433L35.8928 31.4728ZM37.314 30.554C36.6785 30.4677 36.075 30.8579 35.8928 31.4728L36.4681 31.6433C36.5662 31.3122 36.8911 31.1021 37.2333 31.1485L37.314 30.554ZM37.5844 30.5906L37.314 30.554L37.2333 31.1485L37.5037 31.1852L37.5844 30.5906ZM23.8079 35.9001C22.3642 35.9001 21.0228 35.3278 20.045 34.3322L19.6169 34.7526C20.7077 35.8632 22.2034 36.5001 23.8079 36.5001V35.9001ZM27.5713 34.3318C26.5918 35.331 25.2537 35.9001 23.8079 35.9001V36.5001C25.4141 36.5001 26.9068 35.8667 27.9997 34.7518L27.5713 34.3318ZM29.8575 33.928C29.0866 33.4643 28.1438 33.7477 27.5713 34.3318L27.9997 34.7518C28.438 34.3048 29.0819 34.1617 29.5483 34.4422L29.8575 33.928ZM30.2906 36.1258C30.9019 35.4059 30.6093 34.3801 29.8575 33.928L29.5483 34.4422C30.0418 34.739 30.1625 35.3497 29.8333 35.7374L30.2906 36.1258ZM23.8079 39.1081C26.3465 39.1081 28.6862 38.0155 30.2906 36.1258L29.8333 35.7374C28.3432 37.4924 26.171 38.5081 23.8079 38.5081V39.1081ZM17.3246 36.1251C18.9291 38.0152 21.2691 39.1081 23.8079 39.1081V38.5081C21.4446 38.5081 19.2721 37.4921 17.7821 35.7368L17.3246 36.1251ZM17.7576 33.9285C17.0062 34.3803 16.7138 35.4055 17.3246 36.1251L17.7821 35.7368C17.4532 35.3493 17.5738 34.7392 18.0668 34.4426L17.7576 33.9285ZM20.045 34.3322C19.472 33.7489 18.5288 33.4646 17.7576 33.9285L18.0668 34.4426C18.5333 34.1621 19.1778 34.3055 19.6169 34.7526L20.045 34.3322Z" fill="#89033E" mask="url(#path-1-outside-1_522_2291)"/>
</svg>
